<svg id="Capa_1" data-name="Capa 1" xmlns="http://www.w3.org/2000/svg" xmlns:xlink="http://www.w3.org/1999/xlink" viewBox="0 0 1080 267.69"><defs><style>.cls-1{fill:none;}.cls-2{clip-path:url(#clip-path);}.cls-3{fill:#ffe505;}.cls-4{fill:#fee303;}.cls-5{fill:#fde304;}.cls-6{fill:#fce206;}.cls-7{fill:#fae104;}.cls-8{fill:#fae006;}.cls-9{fill:#f9df03;}.cls-10{fill:#f8de05;}.cls-11{fill:#f6dd08;}.cls-12{fill:#f7dc08;}.cls-13{fill:#f6db05;}.cls-14{fill:#f5da07;}.cls-15{fill:#f4d904;}.cls-16{fill:#f3d801;}.cls-17{fill:#f2d703;}.cls-18{fill:#f1d600;}.cls-19{fill:#f0d502;}.cls-20{fill:#efd404;}.cls-21{fill:#eed306;}.cls-22{fill:#edd203;}.cls-23{fill:#ecd105;}.cls-24{fill:#ebd002;}.cls-25{fill:#eacf03;}.cls-26{fill:#e9ce01;}.cls-27{fill:#e8cd03;}.cls-28{fill:#e8cc04;}.cls-29{fill:#e7cb06;}.cls-30{fill:#e5c908;}.cls-31{fill:#e4c909;}.cls-32{fill:#e4c80b;}.cls-33{fill:#e2c608;}.cls-34{fill:#e1c50a;}.cls-35{fill:#e1c506;}.cls-36{fill:#e0c308;}.cls-37{fill:#dfc309;}.cls-38{fill:#dec20b;}.cls-39{fill:#dcc10c;}.cls-40{fill:#dbc00a;}.cls-41{fill:#dabe0b;}.cls-42{fill:#d8bd09;}.cls-43{fill:#d8bc0b;}.cls-44{fill:#d8bb07;}.cls-45{fill:#d7b905;}.cls-46{fill:#d6b906;}.cls-47{fill:#d5b807;}.cls-48{fill:#d4b708;}.cls-49{fill:#d3b609;}.cls-50{fill:#d2b50a;}.cls-51{fill:#d0b408;}.cls-52{fill:#d0b309;}.cls-53{fill:#cfb10b;}.cls-54{fill:#ceb107;}.cls-55{fill:#cdb008;}.cls-56{fill:#ccaf0a;}.cls-57{fill:#cbad0b;}.cls-58{fill:#c9ac0c;}.cls-59{fill:#caab0c;}.cls-60{fill:#c8aa0d;}.cls-61{fill:#c7a808;}.cls-62{fill:#c5a70a;}.cls-63{fill:#c4a607;}.cls-64{fill:#c4a508;}.cls-65{fill:#c3a409;}.cls-66{fill:#c2a309;}.cls-67{fill:#c1a20a;}.cls-68{fill:#bfa00b;}.cls-69{fill:#bf9f06;}.cls-70{fill:#be9f07;}.cls-71{fill:#bc9d08;}.cls-72{fill:#ba9b09;}.cls-73{fill:#ba9a0a;}.cls-74{fill:#ba990a;}.cls-75{fill:#b9990a;}.cls-76{fill:#b8970b;}.cls-77{fill:#b6960c;}.cls-78{fill:#b5960d;}.cls-79{fill:#b4950d;}.cls-80{fill:#b3930e;}.cls-81{fill:#b2920e;}.cls-82{fill:#b0900f;}.cls-83{fill:#af8f0f;}.cls-84{fill:#ae8e10;}.cls-85{fill:#ad8d11;}.cls-86{fill:#ab8c11;}.cls-87{fill:#ab8b11;}.cls-88{fill:#aa8a12;}.cls-89{fill:#aa8911;}.cls-90{fill:#a98811;}.cls-91{fill:#a88712;}.cls-92{fill:#a78612;}.cls-93{fill:#a68512;}.cls-94{fill:#a58413;}.cls-95{fill:#a48313;}.cls-96{fill:#a38213;}.cls-97{fill:#a28113;}.cls-98{fill:#a98912;}.cls-99{fill:#b99a0a;}.cls-100{fill:#c7a90b;}.cls-101{fill:#c7ab0e;}.cls-102{fill:#c8ac0d;}.cls-103{fill:#caad0c;}.cls-104{fill:#caae0b;}.cls-105{fill:#cbaf0a;}.cls-106{fill:#cdb009;}.cls-107{fill:#ceb208;}.cls-108{fill:#cfb20a;}.cls-109{fill:#d5b907;}.cls-110{fill:#d6ba06;}.cls-111{fill:#d7bb08;}.cls-112{fill:#e5ca08;}.cls-113{fill:#e6cb06;}.cls-114{fill:#e7cc00;}.cls-115{fill:#e8cd00;}.cls-116{fill:#f0d600;}.cls-117{fill:#f1d700;}.cls-118{fill:#f2d801;}.cls-119{fill:#f3d905;}.cls-120{fill:#f4da03;}.cls-121{fill:#f5dc05;}.cls-122{fill:#f6dd03;}.cls-123{fill:#fee308;}.cls-124{fill:#fde30a;}.cls-125{fill:#fce108;}.cls-126{fill:#fbe00a;}.cls-127{fill:#f9df08;}.cls-128{fill:#f8de0a;}.cls-129{fill:#f8dd0b;}.cls-130{fill:#f6db0a;}.cls-131{fill:#f6da0a;}.cls-132{fill:#f5d907;}.cls-133{fill:#f4d809;}.cls-134{fill:#f4d70b;}.cls-135{fill:#f3d70d;}.cls-136{fill:#f2d60e;}.cls-137{fill:#f0d410;}.cls-138{fill:#f1d310;}.cls-139{fill:#efd212;}.cls-140{fill:#edd110;}.cls-141{fill:#ecd00e;}.cls-142{fill:#eccf0f;}.cls-143{fill:#ebce13;}.cls-144{fill:#e9cd17;}.cls-145{fill:#eacc17;}.cls-146{fill:#e9cb18;}.cls-147{fill:#e8ca18;}.cls-148{fill:#e7ca19;}.cls-149{fill:#e6c81a;}.cls-150{fill:#e6c71a;}.cls-151{fill:#e5c71b;}.cls-152{fill:#e4c51d;}.cls-153{fill:#e3c41e;}.cls-154{fill:#e1c21e;}.cls-155{fill:#e1c21f;}.cls-156{fill:#e0c11f;}.cls-157{fill:#debf20;}.cls-158{fill:#debf22;}.cls-159{fill:#dcbc21;}.cls-160{fill:#dabb20;}.cls-161{fill:#daba22;}.cls-162{fill:#d8b923;}.cls-163{fill:#d8b824;}.cls-164{fill:#d8b825;}.cls-165{fill:#d7b625;}.cls-166{fill:#d6b526;}.cls-167{fill:#d4b427;}.cls-168{fill:#d3b229;}.cls-169{fill:#d3b129;}.cls-170{fill:#d3b02a;}.cls-171{fill:#d2ae2a;}.cls-172{fill:#d1ad2b;}.cls-173{fill:#d0ad2d;}.cls-174{fill:#cfac2f;}.cls-175{fill:#cdaa2f;}.cls-176{fill:#cea930;}.cls-177{fill:#cda92f;}.cls-178{fill:#cca72f;}.cls-179{fill:#caa630;}.cls-180{fill:#c9a531;}.cls-181{fill:#c8a432;}.cls-182{fill:#c7a333;}.cls-183{fill:#c7a234;}.cls-184{fill:#c5a035;}.cls-185{fill:#c59f35;}.cls-186{fill:#c49f35;}.cls-187{fill:#c39e37;}.cls-188{fill:#c29e39;}.cls-189{fill:#c19c3a;}.cls-190{fill:#c19b3b;}.cls-191{fill:#c09a3b;}.cls-192{fill:#bf9a3c;}.cls-193{fill:#be993c;}.cls-194{fill:#bd983c;}.cls-195{fill:#bc973d;}.cls-196{fill:#bc963e;}.cls-197{fill:#bc953e;}.cls-198{fill:#bb9440;}.cls-199{fill:#ba9341;}.cls-200{fill:#b99241;}.cls-201{fill:#b89142;}.cls-202{fill:#b79044;}.cls-203{fill:#b68f44;}.cls-204{fill:#b68d45;}.cls-205{fill:#b48c44;}.cls-206{fill:#b38b46;}.cls-207{fill:#b28a46;}.cls-208{fill:#b18947;}.cls-209{fill:#b08848;}.cls-210{fill:#af8748;}.cls-211{fill:#af864a;}.cls-212{fill:#ae854a;}.cls-213{fill:#ad844b;}.cls-214{fill:#ab834c;}.cls-215{fill:#ab824d;}.cls-216{fill:#aa814e;}.cls-217{fill:#a9814f;}.cls-218{fill:#a97f50;}.cls-219{fill:#a87e4f;}.cls-220{fill:#a77e52;}.cls-221{fill:#a67d52;}.cls-222{fill:#a97f4f;}.cls-223{fill:#a9804e;}.cls-224{fill:#aa814d;}.cls-225{fill:#ad844a;}.cls-226{fill:#ae8549;}.cls-227{fill:#af8648;}.cls-228{fill:#b08747;}.cls-229{fill:#b18946;}.cls-230{fill:#b18945;}.cls-231{fill:#b28b45;}.cls-232{fill:#b38c43;}.cls-233{fill:#b68d43;}.cls-234{fill:#b78f43;}.cls-235{fill:#b79041;}.cls-236{fill:#b89140;}.cls-237{fill:#b9923f;}.cls-238{fill:#ba933e;}.cls-239{fill:#bb943d;}.cls-240{fill:#bc953b;}.cls-241{fill:#bc953a;}.cls-242{fill:#bd963b;}.cls-243{fill:#bd983b;}.cls-244{fill:#be993b;}.cls-245{fill:#be9939;}.cls-246{fill:#c09a37;}.cls-247{fill:#c19b36;}.cls-248{fill:#c29c34;}.cls-249{fill:#c39d33;}.cls-250{fill:#c39e33;}.cls-251{fill:#c49f33;}.cls-252{fill:#c5a033;}.cls-253{fill:#c5a131;}.cls-254{fill:#c7a22f;}.cls-255{fill:#c8a32e;}.cls-256{fill:#c9a42c;}.cls-257{fill:#caa52c;}.cls-258{fill:#caa62b;}.cls-259{fill:#cba72c;}.cls-260{fill:#cda92c;}.cls-261{fill:#cdaa2b;}.cls-262{fill:#cfac29;}.cls-263{fill:#d0ad28;}.cls-264{fill:#d0ad27;}.cls-265{fill:#d0ae27;}.cls-266{fill:#d2af27;}.cls-267{fill:#d3b125;}.cls-268{fill:#d3b124;}.cls-269{fill:#d4b222;}.cls-270{fill:#d5b322;}.cls-271{fill:#d5b422;}.cls-272{fill:#d7b521;}.cls-273{fill:#d7b621;}.cls-274{fill:#d8b71f;}.cls-275{fill:#d8b81d;}.cls-276{fill:#dab91d;}.cls-277{fill:#dbba1c;}.cls-278{fill:#dbbb1c;}.cls-279{fill:#dcbc1a;}.cls-280{fill:#ddbd19;}.cls-281{fill:#debe19;}.cls-282{fill:#e0c01a;}.cls-283{fill:#e0c11b;}.cls-284{fill:#e1c21b;}.cls-285{fill:#e3c31a;}.cls-286{fill:#e4c417;}.cls-287{fill:#e4c414;}.cls-288{fill:#e4c514;}.cls-289{fill:#e6c713;}.cls-290{fill:#e6c812;}.cls-291{fill:#e8c914;}.cls-292{fill:#e9ca13;}.cls-293{fill:#eacb0f;}.cls-294{fill:#eacc0a;}.cls-295{fill:#ebce08;}.cls-296{fill:#ecce06;}.cls-297{fill:#eccf06;}.cls-298{fill:#edd009;}.cls-299{fill:#efd106;}.cls-300{fill:#f0d309;}.cls-301{fill:#f1d407;}.cls-302{fill:#f2d506;}.cls-303{fill:#f3d600;}.cls-304{fill:#f3d603;}.cls-305{fill:#f4d701;}.cls-306{fill:#2e2a22;}</style><clipPath id="clip-path" transform="translate(0 -421.93)"><path class="cls-1" d="M1079.54,564.15a105.17,105.17,0,0,1-19.06,26.36,49.21,49.21,0,0,1-12.81,9.33,27.53,27.53,0,0,1-15,3,30,30,0,0,1-14.23-5.77,54.49,54.49,0,0,1-11.35-11.2c-6.48-8.64-13.9-17.42-23.92-21.94a31.28,31.28,0,0,0-15.85-2.71,41.91,41.91,0,0,0-15.4,4.75c-9.64,5-17.85,12.36-25.63,19.89s-15.09,15.63-22.94,22.89c-7.65,7.36-17.2,12-27.18,14.54-20,5.19-41.71,1.48-59.44-9.54-17.9-11-31.54-28.57-41.25-48-5-9.72-8.56-20-12.8-30.47a151.1,151.1,0,0,0-7.29-15.19,65.64,65.64,0,0,0-9.83-13.9l-1.5-1.56-1.7-1.4c-.58-.45-1.11-1-1.74-1.36l-1.93-1.14a8.51,8.51,0,0,0-2-1c-.72-.27-1.42-.55-2.15-.78a16.51,16.51,0,0,0-13.23,2.46,29.49,29.49,0,0,0-6.57,5.85,68,68,0,0,0-9.24,14.43c-.19.38-1.75,3.78-2.1,4.66q-1.75,4-3.22,8.15c-1,2.51-2,4.92-2.94,7.26-1.15,2.7-2.3,5.41-3.49,8.1-1,2.29-2.09,4.56-3.22,6.86-5.88,14.46-69.52,132.87-74.9,74.3-3.65-37.41,14.44-121.52.85-141.86-9.36-11.7-27.62-15.4-43.33-2.13-24.68,23.38-45.14,55.39-53.56,83.07,2.86-29.74,10.6-84.15,3.87-116.92-1.65-8-4.18-14.8-7.87-19.55-10-11.73-26.58-9-39.56,2.27-27.56,28.85-48.66,106.5-64.05,143-4.23-22.39,8.92-72,8.52-81.54h0c0-.06,0-.11,0-.17a2.26,2.26,0,0,0,0-.26h0c.43-27.41-2.73-43.25-11-54-10.5-12.29-27.85-9.46-41.46,2.39-21.88,22.9-39.85,75.08-54.3,115.68l-.13,0c-.15.53-15.53,53-50.8,62.08-23,5.91-49.59-7.65-79.2-40.33-34.78-36.66-63.61-49.64-88.77-51C69.06,530.43,0,570.94,0,570.94c10-3.46,19.86-8.37,29.46-13.11,40.48-20,82.35-40.75,149.38,29.9,26.37,29.11,50.92,43.78,73.2,43.78A49.11,49.11,0,0,0,264.3,630c31.26-8,47.73-44.82,53.35-60.18a1.63,1.63,0,0,0,.09.19c.45-1.5.94-3,1.42-4.54.28-.88.49-1.57.61-2,13.67-43.09,34-92.24,52.08-112,13.67-13.32,28.08-10.54,26,21-.55,4.84-1.36,11.67-2.28,19.63h0c-.82,4.73-3.14,22.78-3.78,27.95-4,33-8.33,81.4-5.4,87.81,3.76,4.4,28.67,6.33,28.88,1.42,3.48-34.95,36.83-137.28,64.44-167.54,13.05-12.7,24.18-11.45,22.23,18.66-3.18,27.94-12,125.15-8.93,130.92,5,5.86,27.21,9.76,27.57,1.35,6.76-34.79,34.5-83.3,55.64-100.53,47.55-34.9,12.91,66.67,15.54,127.91,1.33,30.27,19.07,45.9,37.28,35.55,25-15.63,53.44-64.81,66.62-95.78,2.77-6.34,5.14-12.27,7.53-18,.31-.73.64-1.44,1-2.17l0-.09.05-.18s0-.07,0-.11c1.67-4,3.38-7.88,5.28-11.75.41-1,5.71-12.55,9-16.39a24.56,24.56,0,0,1,5.4-4.9,11.78,11.78,0,0,1,6.17-2.18c4.28-.42,8.51,2.47,12,6a60.2,60.2,0,0,1,9.16,12.72,145.35,145.35,0,0,1,7.18,14.6c4.18,10,8,20.74,13.25,30.61,10.17,19.78,24.39,38,43.16,49.23,18.6,11.32,41.26,15,62,9.38,10.33-2.73,20.42-7.73,28.34-15.48,7.94-7.48,15.16-15.6,22.82-23.17s15.64-14.83,24.85-19.76a39.9,39.9,0,0,1,14.58-4.69,29.27,29.27,0,0,1,14.91,2.36,44.05,44.05,0,0,1,12.85,8.92,33,33,0,0,1,2.82,2.85c.89,1,1.85,1.93,2.68,3l5.11,6.35a55.86,55.86,0,0,0,11.78,11.36,31.19,31.19,0,0,0,14.9,5.82,28.53,28.53,0,0,0,15.54-3.25,50.31,50.31,0,0,0,13-9.66A106.1,106.1,0,0,0,1080,564.4Z"/></clipPath></defs><g class="cls-2"><rect class="cls-3" y="229.93" width="1080" height="37.76"/><rect class="cls-3" y="229.5" width="1080" height="0.43"/><rect class="cls-4" y="229.08" width="1080" height="0.43"/><rect class="cls-5" y="228.65" width="1080" height="0.43"/><rect class="cls-6" y="228.22" width="1080" height="0.43"/><rect class="cls-7" y="227.79" width="1080" height="0.43"/><rect class="cls-8" y="227.37" width="1080" height="0.43"/><rect class="cls-9" y="226.94" width="1080" height="0.43"/><rect class="cls-10" y="226.51" width="1080" height="0.43"/><rect class="cls-11" y="226.08" width="1080" height="0.43"/><rect class="cls-12" y="225.65" width="1080" height="0.43"/><rect class="cls-13" y="225.23" width="1080" height="0.43"/><rect class="cls-14" y="224.8" width="1080" height="0.43"/><rect class="cls-15" y="224.37" width="1080" height="0.43"/><rect class="cls-16" y="223.94" width="1080" height="0.43"/><rect class="cls-17" y="223.52" width="1080" height="0.43"/><rect class="cls-18" y="223.09" width="1080" height="0.43"/><rect class="cls-19" y="222.66" width="1080" height="0.43"/><rect class="cls-20" y="222.23" width="1080" height="0.43"/><rect class="cls-21" y="221.81" width="1080" height="0.43"/><rect class="cls-22" y="221.38" width="1080" height="0.43"/><rect class="cls-23" y="220.95" width="1080" height="0.43"/><rect class="cls-24" y="220.52" width="1080" height="0.43"/><rect class="cls-25" y="220.09" width="1080" height="0.43"/><rect class="cls-26" y="219.67" width="1080" height="0.43"/><rect class="cls-27" y="219.24" width="1080" height="0.43"/><rect class="cls-28" y="218.81" width="1080" height="0.43"/><rect class="cls-29" y="218.38" width="1080" height="0.43"/><rect class="cls-29" y="217.96" width="1080" height="0.43"/><rect class="cls-30" y="217.53" width="1080" height="0.43"/><rect class="cls-31" y="217.1" width="1080" height="0.43"/><rect class="cls-32" y="216.67" width="1080" height="0.43"/><rect class="cls-33" y="216.25" width="1080" height="0.43"/><rect class="cls-34" y="215.82" width="1080" height="0.43"/><rect class="cls-35" y="215.39" width="1080" height="0.43"/><rect class="cls-36" y="214.96" width="1080" height="0.43"/><rect class="cls-37" y="214.53" width="1080" height="0.43"/><rect class="cls-38" y="214.11" width="1080" height="0.43"/><rect class="cls-39" y="213.68" width="1080" height="0.43"/><rect class="cls-40" y="213.25" width="1080" height="0.43"/><rect class="cls-41" y="212.82" width="1080" height="0.43"/><rect class="cls-42" y="212.4" width="1080" height="0.43"/><rect class="cls-43" y="211.97" width="1080" height="0.43"/><rect class="cls-44" y="211.54" width="1080" height="0.43"/><rect class="cls-45" y="211.11" width="1080" height="0.43"/><rect class="cls-46" y="210.68" width="1080" height="0.43"/><rect class="cls-47" y="210.26" width="1080" height="0.43"/><rect class="cls-48" y="209.83" width="1080" height="0.43"/><rect class="cls-49" y="209.4" width="1080" height="0.43"/><rect class="cls-50" y="208.97" width="1080" height="0.43"/><rect class="cls-51" y="208.55" width="1080" height="0.43"/><rect class="cls-52" y="208.12" width="1080" height="0.43"/><rect class="cls-53" y="207.69" width="1080" height="0.43"/><rect class="cls-54" y="207.26" width="1080" height="0.43"/><rect class="cls-55" y="206.84" width="1080" height="0.43"/><rect class="cls-56" y="206.41" width="1080" height="0.43"/><rect class="cls-57" y="205.98" width="1080" height="0.43"/><rect class="cls-57" y="205.55" width="1080" height="0.43"/><rect class="cls-58" y="205.12" width="1080" height="0.43"/><rect class="cls-59" y="204.7" width="1080" height="0.43"/><rect class="cls-60" y="204.27" width="1080" height="0.43"/><rect class="cls-61" y="203.84" width="1080" height="0.43"/><rect class="cls-62" y="203.41" width="1080" height="0.43"/><rect class="cls-63" y="202.99" width="1080" height="0.43"/><rect class="cls-64" y="202.56" width="1080" height="0.43"/><rect class="cls-65" y="202.13" width="1080" height="0.43"/><rect class="cls-66" y="201.7" width="1080" height="0.43"/><rect class="cls-67" y="201.28" width="1080" height="0.43"/><rect class="cls-67" y="200.85" width="1080" height="0.43"/><rect class="cls-68" y="200.42" width="1080" height="0.43"/><rect class="cls-69" y="199.99" width="1080" height="0.43"/><rect class="cls-70" y="199.56" width="1080" height="0.43"/><rect class="cls-71" y="199.14" width="1080" height="0.43"/><rect class="cls-71" y="198.71" width="1080" height="0.43"/><rect class="cls-72" y="198.28" width="1080" height="0.43"/><rect class="cls-73" y="197.85" width="1080" height="0.43"/><rect class="cls-74" y="197.43" width="1080" height="0.43"/><rect class="cls-75" y="197" width="1080" height="0.43"/><rect class="cls-76" y="196.57" width="1080" height="0.43"/><rect class="cls-77" y="196.14" width="1080" height="0.43"/><rect class="cls-78" y="195.72" width="1080" height="0.43"/><rect class="cls-79" y="195.29" width="1080" height="0.43"/><rect class="cls-80" y="194.86" width="1080" height="0.43"/><rect class="cls-80" y="194.43" width="1080" height="0.43"/><rect class="cls-81" y="194" width="1080" height="0.43"/><rect class="cls-82" y="193.58" width="1080" height="0.43"/><rect class="cls-83" y="193.15" width="1080" height="0.43"/><rect class="cls-84" y="192.72" width="1080" height="0.43"/><rect class="cls-85" y="192.29" width="1080" height="0.43"/><rect class="cls-86" y="191.87" width="1080" height="0.43"/><rect class="cls-87" y="191.44" width="1080" height="0.43"/><rect class="cls-88" y="191.01" width="1080" height="0.43"/><rect class="cls-89" y="190.58" width="1080" height="0.43"/><rect class="cls-90" y="190.16" width="1080" height="0.43"/><rect class="cls-91" y="189.73" width="1080" height="0.43"/><rect class="cls-92" y="189.3" width="1080" height="0.43"/><rect class="cls-93" y="188.87" width="1080" height="0.43"/><rect class="cls-94" y="188.44" width="1080" height="0.43"/><rect class="cls-95" y="188.02" width="1080" height="0.43"/><rect class="cls-96" y="187.59" width="1080" height="0.43"/><rect class="cls-97" y="187.16" width="1080" height="0.43"/><rect class="cls-97" y="186.87" width="1080" height="0.29"/><rect class="cls-96" y="186.59" width="1080" height="0.29"/><rect class="cls-95" y="186.3" width="1080" height="0.29"/><rect class="cls-94" y="186.01" width="1080" height="0.29"/><rect class="cls-93" y="185.73" width="1080" height="0.29"/><rect class="cls-92" y="185.44" width="1080" height="0.29"/><rect class="cls-91" y="185.15" width="1080" height="0.29"/><rect class="cls-90" y="184.87" width="1080" height="0.29"/><rect class="cls-98" y="184.58" width="1080" height="0.29"/><rect class="cls-88" y="184.3" width="1080" height="0.29"/><rect class="cls-87" y="184.01" width="1080" height="0.29"/><rect class="cls-86" y="183.72" width="1080" height="0.29"/><rect class="cls-85" y="183.44" width="1080" height="0.29"/><rect class="cls-84" y="183.15" width="1080" height="0.29"/><rect class="cls-83" y="182.86" width="1080" height="0.29"/><rect class="cls-82" y="182.58" width="1080" height="0.29"/><rect class="cls-81" y="182.29" width="1080" height="0.29"/><rect class="cls-80" y="182" width="1080" height="0.29"/><rect class="cls-80" y="181.72" width="1080" height="0.29"/><rect class="cls-79" y="181.43" width="1080" height="0.29"/><rect class="cls-78" y="181.14" width="1080" height="0.29"/><rect class="cls-77" y="180.86" width="1080" height="0.29"/><rect class="cls-76" y="180.57" width="1080" height="0.29"/><rect class="cls-75" y="180.28" width="1080" height="0.29"/><rect class="cls-99" y="180" width="1080" height="0.29"/><rect class="cls-73" y="179.71" width="1080" height="0.29"/><rect class="cls-72" y="179.42" width="1080" height="0.29"/><rect class="cls-71" y="179.14" width="1080" height="0.29"/><rect class="cls-71" y="178.85" width="1080" height="0.29"/><rect class="cls-70" y="178.56" width="1080" height="0.29"/><rect class="cls-69" y="178.28" width="1080" height="0.29"/><rect class="cls-68" y="177.99" width="1080" height="0.29"/><rect class="cls-67" y="177.7" width="1080" height="0.29"/><rect class="cls-67" y="177.42" width="1080" height="0.29"/><rect class="cls-66" y="177.13" width="1080" height="0.29"/><rect class="cls-65" y="176.84" width="1080" height="0.29"/><rect class="cls-64" y="176.56" width="1080" height="0.29"/><rect class="cls-63" y="176.27" width="1080" height="0.29"/><rect class="cls-62" y="175.98" width="1080" height="0.29"/><rect class="cls-100" y="175.7" width="1080" height="0.29"/><rect class="cls-101" y="175.41" width="1080" height="0.29"/><rect class="cls-102" y="175.12" width="1080" height="0.29"/><rect class="cls-103" y="174.84" width="1080" height="0.29"/><rect class="cls-104" y="174.55" width="1080" height="0.29"/><rect class="cls-105" y="174.26" width="1080" height="0.29"/><rect class="cls-106" y="173.98" width="1080" height="0.29"/><rect class="cls-106" y="173.69" width="1080" height="0.29"/><rect class="cls-107" y="173.4" width="1080" height="0.29"/><rect class="cls-108" y="173.12" width="1080" height="0.29"/><rect class="cls-52" y="172.83" width="1080" height="0.29"/><rect class="cls-51" y="172.54" width="1080" height="0.29"/><rect class="cls-50" y="172.26" width="1080" height="0.29"/><rect class="cls-49" y="171.97" width="1080" height="0.29"/><rect class="cls-48" y="171.68" width="1080" height="0.29"/><rect class="cls-47" y="171.4" width="1080" height="0.29"/><rect class="cls-109" y="171.11" width="1080" height="0.29"/><rect class="cls-110" y="170.82" width="1080" height="0.29"/><rect class="cls-111" y="170.54" width="1080" height="0.29"/><rect class="cls-43" y="170.25" width="1080" height="0.29"/><rect class="cls-42" y="169.96" width="1080" height="0.29"/><rect class="cls-41" y="169.68" width="1080" height="0.29"/><rect class="cls-40" y="169.39" width="1080" height="0.29"/><rect class="cls-39" y="169.1" width="1080" height="0.29"/><rect class="cls-38" y="168.82" width="1080" height="0.29"/><rect class="cls-37" y="168.53" width="1080" height="0.29"/><rect class="cls-36" y="168.24" width="1080" height="0.29"/><rect class="cls-35" y="167.96" width="1080" height="0.29"/><rect class="cls-34" y="167.67" width="1080" height="0.29"/><rect class="cls-33" y="167.38" width="1080" height="0.29"/><rect class="cls-32" y="167.1" width="1080" height="0.29"/><rect class="cls-31" y="166.81" width="1080" height="0.29"/><rect class="cls-31" y="166.52" width="1080" height="0.29"/><rect class="cls-112" y="166.24" width="1080" height="0.29"/><rect class="cls-113" y="165.95" width="1080" height="0.29"/><rect class="cls-114" y="165.66" width="1080" height="0.29"/><rect class="cls-115" y="165.38" width="1080" height="0.29"/><rect class="cls-26" y="165.09" width="1080" height="0.29"/><rect class="cls-25" y="164.8" width="1080" height="0.29"/><rect class="cls-24" y="164.52" width="1080" height="0.29"/><rect class="cls-24" y="159.49" width="1080" height="5.03"/><rect class="cls-23" y="154.45" width="1080" height="5.03"/><rect class="cls-22" y="149.42" width="1080" height="5.03"/><rect class="cls-21" y="144.39" width="1080" height="5.03"/><rect class="cls-20" y="139.36" width="1080" height="5.03"/><rect class="cls-116" y="134.33" width="1080" height="5.03"/><rect class="cls-117" y="129.3" width="1080" height="5.03"/><rect class="cls-118" y="124.26" width="1080" height="5.03"/><rect class="cls-119" y="119.23" width="1080" height="5.03"/><rect class="cls-120" y="114.2" width="1080" height="5.03"/><rect class="cls-120" y="110.03" width="1080" height="4.17"/><rect class="cls-121" y="105.85" width="1080" height="4.17"/><rect class="cls-122" y="101.68" width="1080" height="4.17"/><rect class="cls-11" y="97.5" width="1080" height="4.17"/><rect class="cls-10" y="93.33" width="1080" height="4.17"/><rect class="cls-8" y="89.16" width="1080" height="4.17"/><rect class="cls-7" y="84.98" width="1080" height="4.17"/><rect class="cls-6" y="80.81" width="1080" height="4.17"/><rect class="cls-5" y="76.63" width="1080" height="4.17"/><rect class="cls-4" y="72.46" width="1080" height="4.17"/><rect class="cls-3" y="68.29" width="1080" height="4.17"/><rect class="cls-3" y="67.94" width="1080" height="0.34"/><rect class="cls-123" y="67.6" width="1080" height="0.34"/><rect class="cls-124" y="67.26" width="1080" height="0.34"/><rect class="cls-6" y="66.92" width="1080" height="0.34"/><rect class="cls-125" y="66.58" width="1080" height="0.34"/><rect class="cls-126" y="66.24" width="1080" height="0.34"/><rect class="cls-127" y="65.9" width="1080" height="0.34"/><rect class="cls-128" y="65.55" width="1080" height="0.34"/><rect class="cls-129" y="65.21" width="1080" height="0.34"/><rect class="cls-12" y="64.87" width="1080" height="0.34"/><rect class="cls-130" y="64.53" width="1080" height="0.34"/><rect class="cls-131" y="64.19" width="1080" height="0.34"/><rect class="cls-132" y="63.85" width="1080" height="0.34"/><rect class="cls-133" y="63.51" width="1080" height="0.34"/><rect class="cls-134" y="63.16" width="1080" height="0.34"/><rect class="cls-135" y="62.82" width="1080" height="0.34"/><rect class="cls-136" y="62.48" width="1080" height="0.34"/><rect class="cls-137" y="62.14" width="1080" height="0.34"/><rect class="cls-138" y="61.8" width="1080" height="0.34"/><rect class="cls-139" y="61.46" width="1080" height="0.34"/><rect class="cls-140" y="61.11" width="1080" height="0.34"/><rect class="cls-141" y="60.77" width="1080" height="0.34"/><rect class="cls-142" y="60.43" width="1080" height="0.34"/><rect class="cls-143" y="60.09" width="1080" height="0.34"/><rect class="cls-144" y="59.75" width="1080" height="0.34"/><rect class="cls-145" y="59.41" width="1080" height="0.34"/><rect class="cls-146" y="59.07" width="1080" height="0.34"/><rect class="cls-147" y="58.72" width="1080" height="0.34"/><rect class="cls-148" y="58.38" width="1080" height="0.34"/><rect class="cls-149" y="58.04" width="1080" height="0.34"/><rect class="cls-150" y="57.7" width="1080" height="0.34"/><rect class="cls-151" y="57.36" width="1080" height="0.34"/><rect class="cls-152" y="57.02" width="1080" height="0.34"/><rect class="cls-152" y="56.68" width="1080" height="0.34"/><rect class="cls-153" y="56.33" width="1080" height="0.34"/><rect class="cls-154" y="55.99" width="1080" height="0.34"/><rect class="cls-155" y="55.65" width="1080" height="0.34"/><rect class="cls-156" y="55.31" width="1080" height="0.34"/><rect class="cls-157" y="54.97" width="1080" height="0.34"/><rect class="cls-158" y="54.63" width="1080" height="0.34"/><rect class="cls-159" y="54.29" width="1080" height="0.34"/><rect class="cls-159" y="53.94" width="1080" height="0.34"/><rect class="cls-160" y="53.6" width="1080" height="0.34"/><rect class="cls-161" y="53.26" width="1080" height="0.34"/><rect class="cls-162" y="52.92" width="1080" height="0.34"/><rect class="cls-163" y="52.58" width="1080" height="0.34"/><rect class="cls-164" y="52.24" width="1080" height="0.34"/><rect class="cls-165" y="51.9" width="1080" height="0.34"/><rect class="cls-166" y="51.55" width="1080" height="0.34"/><rect class="cls-167" y="51.21" width="1080" height="0.34"/><rect class="cls-167" y="50.87" width="1080" height="0.34"/><rect class="cls-168" y="50.53" width="1080" height="0.34"/><rect class="cls-169" y="50.19" width="1080" height="0.34"/><rect class="cls-170" y="49.85" width="1080" height="0.34"/><rect class="cls-171" y="49.51" width="1080" height="0.34"/><rect class="cls-172" y="49.16" width="1080" height="0.34"/><rect class="cls-173" y="48.82" width="1080" height="0.34"/><rect class="cls-174" y="48.48" width="1080" height="0.34"/><rect class="cls-175" y="48.14" width="1080" height="0.34"/><rect class="cls-176" y="47.8" width="1080" height="0.34"/><rect class="cls-177" y="47.46" width="1080" height="0.34"/><rect class="cls-178" y="47.12" width="1080" height="0.34"/><rect class="cls-179" y="46.77" width="1080" height="0.34"/><rect class="cls-180" y="46.43" width="1080" height="0.34"/><rect class="cls-181" y="46.09" width="1080" height="0.34"/><rect class="cls-182" y="45.75" width="1080" height="0.34"/><rect class="cls-183" y="45.41" width="1080" height="0.34"/><rect class="cls-184" y="45.07" width="1080" height="0.34"/><rect class="cls-185" y="44.73" width="1080" height="0.34"/><rect class="cls-186" y="44.38" width="1080" height="0.34"/><rect class="cls-187" y="44.04" width="1080" height="0.34"/><rect class="cls-188" y="43.7" width="1080" height="0.34"/><rect class="cls-189" y="43.36" width="1080" height="0.34"/><rect class="cls-190" y="43.02" width="1080" height="0.34"/><rect class="cls-191" y="42.68" width="1080" height="0.34"/><rect class="cls-192" y="42.34" width="1080" height="0.34"/><rect class="cls-193" y="41.99" width="1080" height="0.34"/><rect class="cls-194" y="41.65" width="1080" height="0.34"/><rect class="cls-195" y="41.31" width="1080" height="0.34"/><rect class="cls-196" y="40.97" width="1080" height="0.34"/><rect class="cls-197" y="40.63" width="1080" height="0.34"/><rect class="cls-198" y="40.29" width="1080" height="0.34"/><rect class="cls-199" y="39.95" width="1080" height="0.34"/><rect class="cls-200" y="39.6" width="1080" height="0.34"/><rect class="cls-201" y="39.26" width="1080" height="0.34"/><rect class="cls-202" y="38.92" width="1080" height="0.34"/><rect class="cls-203" y="38.58" width="1080" height="0.34"/><rect class="cls-204" y="38.24" width="1080" height="0.34"/><rect class="cls-205" y="37.9" width="1080" height="0.34"/><rect class="cls-206" y="37.56" width="1080" height="0.34"/><rect class="cls-207" y="37.21" width="1080" height="0.34"/><rect class="cls-208" y="36.87" width="1080" height="0.34"/><rect class="cls-209" y="36.53" width="1080" height="0.34"/><rect class="cls-210" y="36.19" width="1080" height="0.34"/><rect class="cls-211" y="35.85" width="1080" height="0.34"/><rect class="cls-212" y="35.51" width="1080" height="0.34"/><rect class="cls-213" y="35.17" width="1080" height="0.34"/><rect class="cls-214" y="34.82" width="1080" height="0.34"/><rect class="cls-215" y="34.48" width="1080" height="0.34"/><rect class="cls-216" y="34.14" width="1080" height="0.34"/><rect class="cls-217" y="33.8" width="1080" height="0.34"/><rect class="cls-218" y="33.46" width="1080" height="0.34"/><rect class="cls-219" y="33.12" width="1080" height="0.34"/><rect class="cls-220" y="32.78" width="1080" height="0.34"/><rect class="cls-221" y="32.43" width="1080" height="0.34"/><rect class="cls-221" y="32.12" width="1080" height="0.31"/><rect class="cls-220" y="31.81" width="1080" height="0.31"/><rect class="cls-219" y="31.5" width="1080" height="0.31"/><rect class="cls-222" y="31.19" width="1080" height="0.31"/><rect class="cls-223" y="30.88" width="1080" height="0.31"/><rect class="cls-224" y="30.57" width="1080" height="0.31"/><rect class="cls-215" y="30.26" width="1080" height="0.31"/><rect class="cls-214" y="29.95" width="1080" height="0.31"/><rect class="cls-225" y="29.63" width="1080" height="0.31"/><rect class="cls-226" y="29.32" width="1080" height="0.31"/><rect class="cls-227" y="29.01" width="1080" height="0.31"/><rect class="cls-228" y="28.7" width="1080" height="0.31"/><rect class="cls-229" y="28.39" width="1080" height="0.31"/><rect class="cls-230" y="28.08" width="1080" height="0.31"/><rect class="cls-231" y="27.77" width="1080" height="0.31"/><rect class="cls-232" y="27.46" width="1080" height="0.31"/><rect class="cls-205" y="27.15" width="1080" height="0.31"/><rect class="cls-233" y="26.84" width="1080" height="0.31"/><rect class="cls-234" y="26.52" width="1080" height="0.31"/><rect class="cls-235" y="26.21" width="1080" height="0.31"/><rect class="cls-236" y="25.9" width="1080" height="0.31"/><rect class="cls-237" y="25.59" width="1080" height="0.31"/><rect class="cls-238" y="25.28" width="1080" height="0.31"/><rect class="cls-239" y="24.97" width="1080" height="0.31"/><rect class="cls-240" y="24.66" width="1080" height="0.31"/><rect class="cls-241" y="24.35" width="1080" height="0.31"/><rect class="cls-242" y="24.04" width="1080" height="0.31"/><rect class="cls-243" y="23.72" width="1080" height="0.31"/><rect class="cls-244" y="23.41" width="1080" height="0.31"/><rect class="cls-245" y="23.1" width="1080" height="0.31"/><rect class="cls-246" y="22.79" width="1080" height="0.31"/><rect class="cls-247" y="22.48" width="1080" height="0.31"/><rect class="cls-248" y="22.17" width="1080" height="0.31"/><rect class="cls-249" y="21.86" width="1080" height="0.31"/><rect class="cls-250" y="21.55" width="1080" height="0.31"/><rect class="cls-251" y="21.24" width="1080" height="0.31"/><rect class="cls-252" y="20.93" width="1080" height="0.31"/><rect class="cls-253" y="20.61" width="1080" height="0.31"/><rect class="cls-254" y="20.3" width="1080" height="0.31"/><rect class="cls-255" y="19.99" width="1080" height="0.31"/><rect class="cls-256" y="19.68" width="1080" height="0.31"/><rect class="cls-257" y="19.37" width="1080" height="0.31"/><rect class="cls-258" y="19.06" width="1080" height="0.31"/><rect class="cls-259" y="18.75" width="1080" height="0.31"/><rect class="cls-260" y="18.44" width="1080" height="0.31"/><rect class="cls-261" y="18.13" width="1080" height="0.31"/><rect class="cls-262" y="17.82" width="1080" height="0.31"/><rect class="cls-263" y="17.5" width="1080" height="0.31"/><rect class="cls-264" y="17.19" width="1080" height="0.31"/><rect class="cls-265" y="16.88" width="1080" height="0.31"/><rect class="cls-266" y="16.57" width="1080" height="0.31"/><rect class="cls-267" y="16.26" width="1080" height="0.31"/><rect class="cls-268" y="15.95" width="1080" height="0.31"/><rect class="cls-269" y="15.64" width="1080" height="0.31"/><rect class="cls-270" y="15.33" width="1080" height="0.31"/><rect class="cls-271" y="15.02" width="1080" height="0.31"/><rect class="cls-272" y="14.7" width="1080" height="0.31"/><rect class="cls-273" y="14.39" width="1080" height="0.31"/><rect class="cls-274" y="14.08" width="1080" height="0.31"/><rect class="cls-275" y="13.77" width="1080" height="0.31"/><rect class="cls-276" y="13.46" width="1080" height="0.31"/><rect class="cls-277" y="13.15" width="1080" height="0.31"/><rect class="cls-278" y="12.84" width="1080" height="0.31"/><rect class="cls-279" y="12.53" width="1080" height="0.31"/><rect class="cls-280" y="12.22" width="1080" height="0.31"/><rect class="cls-281" y="11.91" width="1080" height="0.31"/><rect class="cls-282" y="11.59" width="1080" height="0.31"/><rect class="cls-283" y="11.28" width="1080" height="0.31"/><rect class="cls-284" y="10.97" width="1080" height="0.31"/><rect class="cls-285" y="10.66" width="1080" height="0.31"/><rect class="cls-286" y="10.35" width="1080" height="0.31"/><rect class="cls-287" y="10.04" width="1080" height="0.31"/><rect class="cls-288" y="9.73" width="1080" height="0.31"/><rect class="cls-289" y="9.42" width="1080" height="0.31"/><rect class="cls-290" y="9.11" width="1080" height="0.31"/><rect class="cls-290" y="8.8" width="1080" height="0.31"/><rect class="cls-291" y="8.48" width="1080" height="0.31"/><rect class="cls-292" y="8.17" width="1080" height="0.31"/><rect class="cls-293" y="7.86" width="1080" height="0.31"/><rect class="cls-294" y="7.55" width="1080" height="0.31"/><rect class="cls-295" y="7.24" width="1080" height="0.31"/><rect class="cls-296" y="6.93" width="1080" height="0.31"/><rect class="cls-297" y="6.62" width="1080" height="0.31"/><rect class="cls-298" y="6.31" width="1080" height="0.31"/><rect class="cls-299" y="6" width="1080" height="0.31"/><rect class="cls-300" y="5.69" width="1080" height="0.31"/><rect class="cls-301" y="5.37" width="1080" height="0.31"/><rect class="cls-302" y="5.06" width="1080" height="0.31"/><rect class="cls-303" y="4.75" width="1080" height="0.31"/><rect class="cls-304" y="4.44" width="1080" height="0.31"/><rect class="cls-305" y="4.13" width="1080" height="0.31"/><rect class="cls-305" width="1080" height="4.13"/></g><path class="cls-306" d="M632.68,617.62c-4.11-.16-7.6-2.6-9-9.57-2-10.55,0-26.93,7.45-34.88,5.31-5.68,13.36-4.22,15,3.57,2,10.38-6.54,19.47-14.44,15.09-1.21-.65-.6-1.79-.45-1.63,7.9,4.06,14.58-8.27,12.15-15.57-1.67-4.54-6.23-4.87-10,3.41a50.82,50.82,0,0,0-4.4,17.68,59.57,59.57,0,0,0,0,10.38c1.21,13.63,10.18,9.25,15.49,3.25a71.25,71.25,0,0,0,11.24-19.8c.46-1.13,1.67-.64,1.22.65-2.43,6.49-6.23,14.28-10,19S638.3,618.11,632.68,617.62Z" transform="translate(0 -421.93)"/><path class="cls-306" d="M690.85,590.37c-2.43,6.32-7,16.7-15.34,24.49-7.44,6.65-14.74,5.36-17.77-7.46-5.47-23.85-.76-93.27,14.28-111.28,7.44-9.25,17.62-4.06,19.14,6,3.64,25.79-15.8,62.62-29,82.41,0,20.27,2.13,39.42,14.43,26.6,5.93-6,9-11.68,13.07-21.58C690.09,588.42,691.31,589.07,690.85,590.37Zm-2.58-89.71c-1.06-7-6.38-8.11-11.09-2.11-11.7,13.95-13.82,54-15,83.06C673.53,561.65,691.92,524.51,688.27,500.66Z" transform="translate(0 -421.93)"/><path class="cls-306" d="M698.45,617.62c-4.11-.16-7.6-2.6-9-9.57-2-10.55,0-26.93,7.45-34.88,5.31-5.68,13.36-4.22,15,3.57,2,10.38-6.54,19.47-14.44,15.09-1.21-.65-.6-1.79-.45-1.63,7.9,4.06,14.58-8.27,12.15-15.57-1.67-4.54-6.23-4.87-10,3.41a50.82,50.82,0,0,0-4.4,17.68,59.57,59.57,0,0,0,0,10.38c1.21,13.63,10.18,9.25,15.49,3.25a71.25,71.25,0,0,0,11.24-19.8c.46-1.13,1.67-.64,1.22.65-2.43,6.49-6.23,14.28-10,19S704.07,618.11,698.45,617.62Z" transform="translate(0 -421.93)"/><path class="cls-306" d="M771.81,590.37c-2.88,8.11-8.5,20.92-12.61,26.6-5.46,7.14-12.45,5.52-13.67-3.89-.6-6.33,4.56-49.8-4.1-39.91-5.92,7.14-12.91,31.47-13.37,39.42,0,1.3-5.62.81-6.68,0-1.22-2.27,2-19.79-.46-25.79,0-1.95,6.08-.49,7,0,1.06,1.62-1.52,13.79-.76,18.81,3.19-8.75,7.29-26.76,13.52-33.74,2.58-2.75,6.38-3.56,8.81-1,5.47,5.19,1.22,32.77,1.22,38.93,0,7.63,1.21,13.3,7.29,5.84,2.43-3.08,7.75-13.62,12.61-26.12C771.05,588.42,772.27,589.07,771.81,590.37Z" transform="translate(0 -421.93)"/><path class="cls-306" d="M814.19,590.37c-2.58,6.65-5.77,13.46-9.87,18.49-8.05,9.57-16.86,2.6-16.41-11.36-4.86,11.2-13.37,10.22-16.25,2.27-2-5-2.13-16.54,3-25.63,4.87-9.24,14.89-7,14.44.82-.16.64-.46.81-1.52,1.62-1.07.65-.91.16-.46-.33,1.22-6.65-5.16-8.43-8.81-1.13-5.47,13-2,40.55,7.75,22.38a21.18,21.18,0,0,0,2.28-6.65c.76-7,2.12-13.3,1.67-17.68,2.28-1.13,4.71.65,6.38,1.79.45,6.32-5,19.95-2.58,30.82,1.67,7.78,5.92,5.84,9,2.1A67.32,67.32,0,0,0,813,589.55C813.43,588.42,814.64,589.07,814.19,590.37Z" transform="translate(0 -421.93)"/><path class="cls-306" d="M828,603.67c5-1.14,10.48-5.19,14-14.12.45-1.13,1.82-.48,1.21.82-2.88,7-5.62,12.32-15.19,15.08-.15,9.09-2.58,14.6-7.29,18-5.47,3.89-11.55,2.11-13.37-2-3.64-10.7,9.42-14.92,15.5-16.71a76.65,76.65,0,0,0-5.62-22.87l-3,8.44c-.46,1.29-1.83.65-1.22-.82,1.67-3.73,2.43-6.64,3.5-9.24l-.76-2.11c-1.37-3.08-1.67-4.54-1.52-7,.45-8.59,10.63-6.48,8,1.14-1.07,2.43-2,4.22-3,6.33C823.45,585,827,595.07,828,603.67Zm-5.16,3.4c-4.26,1.14-7.3,1.95-10.79,4.39-8.2,5.67-1.06,15.57,6.23,9.08C821.48,617.29,822.85,612.75,822.85,607.07Z" transform="translate(0 -421.93)"/></svg>